PathFileType	4	(X/Y/Z)	C:\Users\Basilio\Documents\Thesis Gigler\squatting_fais\c3dfiles\076\SJ_pre5\markers_experimental.trc
DataRate	CameraRate	NumFrames	NumMarkers	Units	OrigDataRate	OrigDataStartFrame	OrigNumFrames
200.000000	200.000000	4	61	mm	200.000000	644	1289
Frame#	Time	FHD			LBHD			RBHD			C7			T10			CLAV			LSHO			LUUPA			LMUPA			LDUPA			LLEP			LMEP			LRAD			LUL			LRFIN			RSHO			RUPA1			RMUPA			RDUPA			RLEP			RMEP			RRAD			RUL			RUFIN			LASI			RASI			USACR			LSACR			RSACR			LTHI1			LTHI2			LTHI3			LTHI4			LLFC			LMFC			LTIB1			LTIB2			LTIB3			LTIB4			LLMAL			LMMAL			LHEE			LMT1			LMT2			LMT5			RTHI			RTHI2			RTHI3			RTHI4			RLFC			RMFC			RTIB1			RTIB2			RTIB3			RTIB4			RLMAL			RMMAL			RHEE			RMT1			RMT2			RMT5			
		X1	Y1	Z1	X2	Y2	Z2	X3	Y3	Z3	X4	Y4	Z4	X5	Y5	Z5	X6	Y6	Z6	X7	Y7	Z7	X8	Y8	Z8	X9	Y9	Z9	X10	Y10	Z10	X11	Y11	Z11	X12	Y12	Z12	X13	Y13	Z13	X14	Y14	Z14	X15	Y15	Z15	X16	Y16	Z16	X17	Y17	Z17	X18	Y18	Z18	X19	Y19	Z19	X20	Y20	Z20	X21	Y21	Z21	X22	Y22	Z22	X23	Y23	Z23	X24	Y24	Z24	X25	Y25	Z25	X26	Y26	Z26	X27	Y27	Z27	X28	Y28	Z28	X29	Y29	Z29	X30	Y30	Z30	X31	Y31	Z31	X32	Y32	Z32	X33	Y33	Z33	X34	Y34	Z34	X35	Y35	Z35	X36	Y36	Z36	X37	Y37	Z37	X38	Y38	Z38	X39	Y39	Z39	X40	Y40	Z40	X41	Y41	Z41	X42	Y42	Z42	X43	Y43	Z43	X44	Y44	Z44	X45	Y45	Z45	X46	Y46	Z46	X47	Y47	Z47	X48	Y48	Z48	X49	Y49	Z49	X50	Y50	Z50	X51	Y51	Z51	X52	Y52	Z52	X53	Y53	Z53	X54	Y54	Z54	X55	Y55	Z55	X56	Y56	Z56	X57	Y57	Z57	X58	Y58	Z58	X59	Y59	Z59	X60	Y60	Z60	X61	Y61	Z61	

645	3.22	150.0384826660157	959.414733886719	-882.3274536132815	-4.909307003021241	943.0161132812502	-979.6978759765627	7.567273616790773	942.7718505859377	-831.945983886719	-71.79988098144533	909.0720825195315	-912.152526855469	-362.9580078125001	810.4128417968752	-931.6055297851565	-54.60886001586915	751.0690307617189	-910.3017578125002	-47.36278152465821	801.855163574219	-1075.780517578125	-156.2784881591797	743.7172851562501	-1227.748046875	-193.9410400390626	715.3839721679689	-1221.451171875	-202.424545288086	729.0385131835939	-1278.309814453125	-248.3250274658204	724.0174560546876	-1316.52197265625	-286.7268066406251	803.8987426757815	-1303.47509765625	-412.5325317382814	718.5339965820314	-1140.048706054688	-424.3404541015626	655.6307373046876	-1159.91162109375	nan	nan	nan	-76.02039337158205	803.6806640625002	-751.0964965820314	-206.5413818359376	791.2540283203127	-607.4216918945314	-235.1612396240235	749.3587036132814	-608.3009643554689	-262.5753479003907	781.6585693359377	-564.6232299804689	-329.3901672363282	756.0661621093751	-542.6519775390626	-367.5929565429688	824.2967529296877	-587.3267822265626	-444.0896606445314	704.8148193359376	-748.2014160156251	-398.3399353027345	676.2386474609376	-763.9705810546876	-449.5751953125001	643.6027221679689	-718.5358886718751	-396.9132385253907	605.8928222656251	-1049.347412109375	-416.4930114746095	587.0557250976564	-842.0343017578127	-477.1372375488282	756.2668457031251	-936.7818603515627	-504.6998291015626	745.1162719726564	-967.9368896484377	-508.7815856933595	738.7156982421876	-910.7988891601565	-439.7199707031251	593.3582763671876	-1154.895141601563	-358.6014099121094	573.2535400390626	-1151.168334960938	-331.1626892089844	600.0704956054689	-1119.445190429688	-333.8182373046876	517.8714599609376	-1163.553100585938	-211.9091796875001	416.7347717285157	-1153.943481445313	-201.3118896484376	412.6788940429689	-1046.177734375	-214.8728027343751	280.1416625976563	-1076.298950195313	-250.8394622802735	232.1198120117188	-1141.152587890625	-227.8004302978516	228.3555145263672	-1101.204956054688	-279.5594482421876	171.3930053710938	-1068.510498046875	-370.8939819335938	76.75654602050783	-1129.189575195313	-353.7535095214844	88.64153289794923	-1043.033203125	-435.887664794922	42.67674255371094	-1087.727905273438	-227.2858123779297	54.01602172851564	-1055.988891601563	-220.0800781250001	54.49974060058595	-1093.8935546875	-233.2895660400391	43.97000122070313	-1146.344604492188	-396.0165405273439	523.1406860351564	-714.2366943359376	-328.2782287597657	527.7200927734376	-701.2999267578126	-309.4315795898438	553.9083251953126	-716.2761840820314	-279.0885314941407	458.187225341797	-696.3582153320314	-233.3284454345704	425.4595031738282	-694.2625732421876	-203.7622070312501	423.5867919921876	-795.4707031250002	-203.9768524169922	292.0462036132813	-715.0939331054689	-301.0607604980469	240.9795532226563	-697.9533081054689	-258.7890319824219	224.7466430664063	-712.6086425781251	-262.8282165527344	181.9163360595703	-751.5153198242189	-369.5099792480469	76.00351715087892	-730.4961547851564	-348.4642639160157	90.00538635253908	-813.7361450195315	-429.094696044922	49.6670379638672	-778.8074340820315	-221.7682647705079	53.45088958740236	-790.9282836914065	-219.1499023437501	57.28234481811525	-745.6883544921876	-245.2744445800782	33.49163818359376	-693.0028076171876	
646	3.225	151.0318756103516	957.3635864257815	-882.210632324219	-3.073018074035645	941.6204223632815	-982.4603271484377	8.575362205505373	940.6816406250002	-831.8718261718752	-70.8075637817383	907.3510742187502	-911.9868774414065	-362.0667114257813	809.217224121094	-931.440368652344	-54.07128906250001	749.1271972656251	-910.3823852539065	-44.57060623168946	800.6668090820315	-1077.08447265625	-155.8442687988282	742.1021728515626	-1227.923095703125	-193.9096221923829	713.6544799804689	-1221.341552734375	-200.1010131835938	727.8310546875001	-1279.46826171875	-247.7373352050782	722.9184570312501	-1316.66943359375	-285.6262817382813	802.6743774414065	-1303.516479492188	-412.1398010253907	718.2759399414064	-1139.993774414063	-424.195037841797	655.2503662109376	-1159.839111328125	nan	nan	nan	-75.11450958251955	801.2615966796877	-751.0353393554689	-205.5775909423829	788.8184814453127	-607.2597656250001	-234.2803649902344	747.2560424804689	-608.2760620117189	-261.4305114746094	779.6196899414065	-564.5249023437501	-328.3909912109376	754.2164916992189	-542.4295654296876	-366.2565002441407	822.8343505859377	-586.9292602539064	-443.1696777343751	704.1503295898439	-748.1938476562501	-397.285125732422	675.6217651367189	-763.7030029296876	-449.0787963867189	642.8035888671876	-718.3728637695314	-396.0576782226564	604.8675537109376	-1048.434936523438	-416.706024169922	586.5053100585939	-841.1789550781252	-476.4133911132814	755.6696166992189	-936.6232910156252	-503.8426818847657	744.5411987304689	-967.8128662109377	-508.2654418945314	738.2338867187501	-910.683532714844	-439.4805297851564	593.3028564453126	-1155.02783203125	-358.4107360839844	573.1115112304689	-1151.270874023438	-331.0099182128907	599.7291870117189	-1119.480346679688	-333.6435852050782	517.6968383789064	-1163.797729492188	-211.856185913086	416.5066528320314	-1154.425048828125	-201.0116119384766	412.4140625000001	-1046.6904296875	-214.7277984619141	280.0058898925782	-1076.622680664063	-250.8760070800782	231.8785552978516	-1141.445190429688	-227.7467346191407	228.1693572998047	-1101.434936523438	-279.4300537109376	171.2682495117188	-1068.71728515625	-370.9325561523438	76.72997283935548	-1129.152099609375	-353.7480468750001	88.66616821289064	-1043.010864257813	-435.9057006835939	42.62009811401368	-1087.751342773438	-227.3018646240235	53.96688079833986	-1056.026977539063	-220.0771942138672	54.42289352416994	-1093.894409179688	-233.3851318359376	43.95360183715821	-1146.399047851563	-395.840301513672	523.0386352539064	-714.0888061523439	-328.0556945800782	527.6630859375001	-701.0861206054689	-309.2863159179688	553.7475585937501	-716.1387329101564	-278.8737792968751	458.1080627441407	-696.1814575195314	-233.1899871826172	425.2221984863282	-694.1373291015626	-203.6156616210938	423.3595275878907	-795.2810668945315	-203.9577026367188	291.8032226562501	-715.0520019531251	-301.0001831054688	240.8833465576172	-698.0363769531251	-258.7492980957032	224.5454254150391	-712.6057739257814	-262.7299194335938	181.8383026123047	-751.5410156250001	-369.4956970214844	76.01952362060548	-730.5656738281251	-348.4144592285157	89.98176574707033	-813.772155761719	-429.1189575195314	49.65620040893556	-778.8103637695315	-221.7689208984376	53.44545745849611	-790.9185791015627	-219.1301422119141	57.22706222534181	-745.6417236328126	-245.280014038086	33.45823287963868	-692.9880981445314	
647	3.23	152.0414733886719	955.6189575195315	-882.0393066406252	-1.96716332435608	939.961608886719	-982.404235839844	9.411537170410158	938.8900146484377	-831.5993652343752	-69.98952484130861	905.8323974609377	-911.8475341796877	-361.1745300292969	808.322448730469	-931.2888793945315	-53.30947494506837	747.3276977539064	-910.3921508789065	-44.00667190551759	799.0821533203127	-1076.980224609375	-155.0590972900391	740.7126464843751	-1227.708862304688	-193.0007781982422	712.2207641601564	-1221.427612304688	-201.0941619873047	726.1260375976564	-1278.376342773438	-246.8427124023438	721.4620361328126	-1316.650024414063	-284.9721069335938	801.4985351562502	-1303.723876953125	-411.482391357422	717.7715454101564	-1139.888549804688	-423.7915954589845	654.6828002929689	-1159.800048828125	nan	nan	nan	-74.29994964599611	799.1104125976565	-751.0883178710939	-204.4895782470704	786.768737792969	-607.1785888671876	-233.4149322509766	745.2374267578126	-608.2512817382814	-260.2380676269532	777.5550537109377	-564.2248535156251	-327.6177978515626	752.0285034179689	-542.0883789062501	-365.1975708007813	821.287536621094	-586.3775024414064	-442.4008789062501	703.6751098632814	-748.1311645507814	-396.2169494628907	674.9431152343751	-763.3692016601564	-448.1271362304689	642.3375244140626	-718.9324951171876	-395.9242553710939	604.1977539062501	-1048.660034179688	-416.2280578613282	585.6632080078126	-841.381286621094	-475.6143798828126	755.0836181640626	-936.5339355468752	-503.0464172363282	744.1363525390626	-967.610046386719	-507.3711242675782	737.7750244140626	-910.576599121094	-439.2092285156251	593.1621704101564	-1155.114868164063	-358.1455383300782	572.9904785156251	-1151.443481445313	-330.5424499511719	599.3609619140626	-1119.547607421875	-333.4290771484376	517.3973999023439	-1164.089721679688	-211.4891815185547	416.3318176269532	-1154.875854492188	-200.6437377929688	412.2232971191407	-1046.943725585938	-214.520004272461	279.7937622070313	-1076.962768554688	-249.6352844238282	231.7791748046876	-1141.302124023438	-227.5439453125001	227.9755859375001	-1101.715454101563	-279.2634887695313	171.1686706542969	-1068.899536132813	-370.9774475097657	76.69058227539064	-1129.195678710938	-353.7401428222657	88.65691375732423	-1043.020263671875	-435.9185180664064	42.61663436889649	-1087.690795898438	-227.3038482666016	53.91020965576173	-1056.104736328125	-220.0932617187501	54.43082427978517	-1093.929443359375	-233.3647766113282	43.87543869018555	-1146.40966796875	-395.510223388672	522.9340209960939	-714.0447387695314	-327.8428039550782	527.4118041992189	-701.0728759765626	-309.0204772949219	553.5773925781251	-716.0301513671876	-278.6235656738282	457.8606567382814	-696.1219482421876	-232.9699401855469	425.0429992675782	-694.0742797851564	-203.4645690917969	423.0109252929689	-795.023864746094	-203.8365478515626	291.6438293457032	-715.0053100585939	-300.8893432617188	240.6910858154297	-698.1655883789064	-258.6364440917969	224.4162139892579	-712.6394653320314	-262.6372375488282	181.6731719970703	-751.5482788085939	-369.5121765136719	76.00007629394533	-730.6319580078126	-347.4158325195313	89.75140380859376	-813.7556762695315	-429.0930480957032	49.64234924316408	-778.9622802734377	-221.7279357910157	53.36919403076173	-790.8816528320315	-219.1644897460938	57.15369033813478	-745.6656494140626	-245.2780303955079	33.47228622436524	-692.9461059570314	
648	3.235	152.8660430908203	954.1524658203127	-881.921081542969	-1.293742060661316	938.407409667969	-981.9150390625002	10.2500638961792	937.4742431640627	-831.4004516601565	-68.80110931396486	904.4918212890627	-911.6680297851565	-360.2986450195313	807.3516845703127	-931.0894775390627	-52.67441177368165	745.9867553710939	-910.3132934570315	-43.33087158203126	797.4864501953127	-1076.896118164063	-154.8708801269532	739.1718750000001	-1227.559204101563	-192.2733612060547	710.5550537109376	-1221.424072265625	-199.3754119873047	725.0788574218751	-1279.40283203125	-246.481918334961	720.2921752929689	-1316.628662109375	-284.0762939453126	800.4370727539065	-1303.7646484375	-410.7420349121095	717.3879394531251	-1139.858520507813	-423.316619873047	654.1448974609376	-1159.762329101563	nan	nan	nan	-73.49221038818361	797.1399536132815	-751.1691894531251	-203.4128417968751	784.639099121094	-606.9652709960939	-232.4204254150391	743.3307495117189	-608.2558593750001	-259.0914001464844	775.7094726562502	-564.0994873046876	-326.2089538574219	750.8291625976564	-541.9089355468751	-363.8361206054688	819.6925048828127	-585.6819458007814	-441.6435546875001	703.0061645507814	-747.9398803710939	-395.2021484375001	674.2860717773439	-763.0809326171876	-447.3942260742189	641.6694335937501	-719.1387329101564	-395.1719360351564	604.1060180664064	-1049.000244140625	-415.0715942382814	585.1929321289064	-841.712829589844	-474.7623291015626	754.7100830078126	-936.495300292969	-502.1620483398439	743.8570556640626	-967.5193481445315	-506.4067382812501	737.3577270507814	-910.4109497070315	-438.7953186035157	592.9328613281251	-1155.159545898438	-357.8624877929688	572.6488647460939	-1151.5234375	-330.1454467773438	599.1196289062501	-1119.6337890625	-333.1040649414063	517.1526489257814	-1164.474731445313	-211.3500366210938	416.0857849121095	-1155.178588867188	-200.3582305908204	412.0077514648439	-1047.282348632813	-214.3569793701172	279.5585327148438	-1077.275146484375	-250.5913085937501	231.4122467041016	-1141.865112304688	-227.3444976806641	227.7320556640626	-1101.85205078125	-279.1214599609376	171.004623413086	-1068.989990234375	-370.9578857421876	76.66560363769533	-1129.188720703125	-353.7408447265626	88.65707397460939	-1043.01318359375	-435.959197998047	42.6279525756836	-1087.71875	-227.2841033935547	53.897274017334	-1056.032348632813	-220.071762084961	54.32197189331056	-1093.909423828125	-233.2707824707032	43.82559204101563	-1146.371704101563	-395.1297912597657	522.8237304687501	-714.0828857421876	-327.4825134277344	527.2455444335939	-701.0939331054689	-308.6740417480469	553.4208984375001	-715.8645019531251	-278.2634582519532	457.7703857421876	-696.0816040039064	-232.6479949951172	424.8096923828126	-694.0872802734376	-203.1529693603516	422.8103027343751	-794.9763793945315	-203.6259155273438	291.4183959960938	-714.9780273437501	-300.7371215820313	240.509994506836	-698.3045043945314	-258.3997497558594	224.117660522461	-712.7349243164064	-262.5066833496094	181.4515838623047	-751.6463012695314	-369.4661560058594	75.96875000000001	-730.7414550781251	-347.3215637207032	89.65330505371095	-813.8670654296877	-429.0706481933595	49.64851379394533	-779.0062255859377	-221.6593170166016	53.34827041625978	-790.8816528320315	-219.1360626220704	57.13151931762697	-745.6241455078126	-245.2944946289063	33.41986465454102	-692.8991088867189	
